<svg viewBox="0 0 100 120" fill="#000000" xmlns="http://www.w3.org/2000/svg">
  <path d="M78.1 10.6c-1.2 1.4-3.1 2.4-4.8 2.4-4.6 0-8.4-3.8-11-3.8-2.7 0-6.8 3.7-11.2 3.7-4 0-9.2-5.1-15.3-5.1C23 8.8 14 18.3 14 32.3c0 10.3 4.4 21.3 10 28.7 5.2 7 11.5 14.8 20.1 14.8 4.6 0 8-1.5 13-1.5 5.3 0 8.2 1.5 13.3 1.5 8.5 0 14.3-7.2 19.4-14.1 4.3-6.2 6.1-12.2 6.2-12.5-.1-.1-11.8-4.5-11.8-17.1 0-10.8 8.8-16 9.5-16.5-5.2-7.7-13.3-8.6-16.1-8.8zm-16.1-9.1c3.2-3.8 5.4-9.1 4.8-14.5-4.6.2-10.2 3.1-13.5 6.9-3 3.5-5.6 9-4.9 14.3 5.1.4 10.3-2.6 13.6-6.7z"/>
</svg>
